<svg xmlns="http://www.w3.org/2000/svg" width="25.698" height="25.698" viewBox="0 0 25.698 25.698">
  <path id="Icon_awesome-plus" data-name="Icon awesome-plus" d="M23.862,12.346H15.6V4.086A1.836,1.836,0,0,0,13.767,2.25H11.931A1.836,1.836,0,0,0,10.1,4.086v8.26H1.836A1.836,1.836,0,0,0,0,14.181v1.836a1.836,1.836,0,0,0,1.836,1.836H10.1v8.26a1.836,1.836,0,0,0,1.836,1.836h1.836A1.836,1.836,0,0,0,15.6,26.112v-8.26h8.26A1.836,1.836,0,0,0,25.7,16.017V14.181A1.836,1.836,0,0,0,23.862,12.346Z" transform="translate(0 -2.25)" fill="#1a535c"/>
</svg>
