<?xml version="1.0" standalone="no"?>
<!DOCTYPE svg PUBLIC "-//W3C//DTD SVG 20010904//EN"
 "http://www.w3.org/TR/2001/REC-SVG-20010904/DTD/svg10.dtd">
<svg version="1.0" xmlns="http://www.w3.org/2000/svg"
 width="1152.000000pt" height="1152.000000pt" viewBox="0 0 1152.000000 1152.000000"
 preserveAspectRatio="xMidYMid meet">
<metadata>
Created by potrace 1.11, written by Peter Selinger 2001-2013
</metadata>
<g transform="translate(0.000000,1152.000000) scale(0.100000,-0.100000)"
fill="#000000" stroke="none">
<path d="M629 10786 c-2 -2 -20 -6 -40 -9 -20 -2 -41 -7 -46 -10 -5 -4 -24 -9
-41 -12 -41 -7 -181 -78 -214 -110 -15 -14 -30 -25 -33 -25 -3 0 -19 -14 -36
-31 -100 -103 -177 -242 -203 -371 -15 -70 -16 -212 -3 -288 3 -14 8 -47 12
-75 4 -27 9 -59 11 -70 2 -11 9 -51 14 -90 10 -68 14 -89 26 -157 3 -18 7 -46
9 -63 4 -32 14 -92 22 -140 2 -16 6 -39 8 -50 7 -49 17 -107 31 -194 8 -51 13
-99 10 -106 -3 -8 -1 -15 3 -17 5 -2 12 -25 15 -53 4 -27 9 -68 13 -90 3 -22
6 -49 8 -60 1 -11 3 -20 5 -20 2 0 3 -7 13 -95 3 -25 6 -45 7 -45 1 0 3 -9 5
-20 1 -11 5 -36 8 -55 3 -19 9 -53 12 -75 3 -22 8 -52 11 -67 8 -43 15 -91 18
-123 1 -17 4 -35 8 -40 3 -6 4 -20 3 -32 -1 -13 1 -23 5 -23 3 0 6 -8 6 -17 1
-49 17 -139 25 -150 7 -7 6 -13 -1 -18 -6 -3 -7 -12 -3 -18 4 -7 8 -19 10 -27
1 -8 5 -35 9 -60 3 -25 8 -56 10 -70 2 -14 6 -38 9 -55 2 -16 6 -43 9 -60 15
-76 28 -172 29 -202 1 -13 3 -23 7 -23 3 0 6 -18 7 -40 2 -22 5 -52 9 -68 3
-15 6 -35 6 -44 -1 -10 2 -18 6 -18 4 0 8 -17 8 -38 1 -33 15 -132 29 -202 2
-14 7 -41 9 -60 3 -19 8 -47 11 -61 2 -14 7 -45 9 -70 3 -24 5 -44 6 -44 1 0
3 -9 4 -20 2 -11 6 -40 10 -65 4 -25 10 -58 12 -75 3 -16 9 -55 14 -85 5 -30
12 -75 16 -100 3 -25 8 -54 10 -65 2 -11 5 -36 8 -55 3 -19 16 -105 30 -190
14 -85 27 -171 30 -190 3 -19 8 -46 10 -60 2 -14 10 -59 16 -100 6 -41 13 -86
15 -99 3 -13 7 -45 11 -70 3 -25 8 -57 10 -71 3 -14 7 -38 10 -55 2 -16 9 -57
14 -90 6 -33 12 -71 14 -85 2 -14 7 -41 10 -60 3 -19 8 -51 10 -70 3 -19 7
-46 9 -60 3 -14 10 -56 16 -95 6 -38 13 -88 17 -110 4 -22 8 -51 10 -65 2 -14
6 -38 9 -55 2 -16 6 -46 9 -65 3 -19 8 -51 12 -70 4 -19 8 -51 10 -70 1 -19 4
-37 5 -40 3 -6 3 -11 13 -80 5 -30 11 -64 13 -75 3 -11 7 -38 8 -60 2 -22 4
-40 5 -40 3 0 10 -41 15 -90 3 -27 9 -57 12 -65 3 -8 7 -28 9 -45 3 -26 6 -54
18 -130 2 -11 4 -20 5 -20 2 0 4 -16 6 -35 6 -53 13 -102 24 -167 6 -32 13
-74 15 -93 3 -19 7 -46 10 -59 3 -13 8 -49 11 -79 3 -30 7 -57 10 -61 2 -4 7
-29 11 -56 3 -27 8 -59 9 -70 2 -11 6 -42 9 -70 4 -27 10 -59 13 -70 4 -11 7
-31 8 -45 3 -29 15 -115 21 -145 3 -11 7 -36 10 -55 3 -19 7 -46 9 -60 3 -14
7 -43 10 -65 15 -95 34 -215 40 -245 3 -14 7 -43 10 -65 3 -22 7 -49 9 -60 3
-17 9 -55 21 -140 13 -88 17 -112 20 -125 3 -8 7 -33 10 -55 8 -66 44 -277 54
-320 5 -22 12 -51 15 -64 27 -116 135 -353 189 -415 9 -11 17 -23 17 -28 0 -4
8 -16 17 -27 10 -10 28 -32 40 -48 12 -16 36 -44 53 -61 16 -18 30 -36 30 -42
0 -5 4 -10 8 -10 5 0 29 -19 54 -42 81 -76 108 -98 108 -90 0 4 4 2 8 -4 12
-18 75 -61 137 -95 33 -18 63 -36 66 -42 3 -5 9 -8 12 -8 4 0 28 -9 54 -20 77
-33 143 -57 223 -79 77 -21 88 -23 200 -39 75 -11 6447 -9 6524 2 27 4 57 9
67 12 11 4 31 8 46 11 16 3 44 10 63 16 19 7 37 13 40 13 3 0 34 11 70 23 36
12 69 22 74 21 5 0 12 4 15 9 3 5 31 21 61 35 66 32 114 59 118 70 2 4 8 7 14
7 11 0 82 49 135 92 60 49 251 248 238 248 -3 0 3 9 13 19 36 40 67 90 130
211 30 57 94 231 108 294 8 33 42 226 49 276 3 25 10 70 15 100 5 30 12 73 15
95 11 69 15 99 20 125 4 25 13 81 20 130 2 14 6 39 9 55 2 17 12 76 21 133 9
57 14 106 11 109 -3 3 -2 11 3 17 5 6 12 31 15 56 3 25 8 57 11 71 3 14 7 45
9 70 3 24 5 44 6 44 4 0 22 120 24 163 1 12 3 22 6 22 3 0 6 8 6 18 0 9 4 40
8 67 4 28 10 64 12 80 2 17 6 44 9 60 4 17 8 46 10 65 2 19 4 35 5 35 2 0 7
26 14 80 18 129 19 136 29 152 4 6 3 14 -3 18 -6 4 -7 12 -3 18 8 13 8 13 18
77 3 25 8 59 11 75 3 17 7 41 9 55 3 23 5 40 20 125 3 17 8 50 11 75 11 79 12
85 14 85 1 0 3 14 5 30 1 17 3 30 4 30 2 0 4 16 6 35 2 19 7 49 10 65 5 26 9
59 18 140 2 11 5 25 8 30 4 6 6 22 5 38 -1 15 1 27 4 27 3 0 6 13 7 28 3 41
11 80 19 93 5 8 3 9 -5 4 -10 -6 -11 -3 -3 11 6 11 10 21 10 24 0 3 3 30 7 60
5 30 9 64 11 75 1 11 3 20 4 20 1 0 3 14 5 30 2 17 7 50 11 75 8 51 9 56 19
125 4 28 9 52 10 55 2 3 7 33 10 65 4 33 9 62 10 65 2 3 7 35 10 70 4 36 9 68
11 72 2 3 7 27 9 51 3 25 7 54 10 65 2 11 7 42 11 69 3 26 8 57 10 68 2 11 7
43 10 70 4 28 8 53 10 57 2 3 7 28 9 55 3 26 10 71 15 98 5 28 12 70 15 95 3
25 10 70 15 100 5 30 12 73 15 95 11 69 15 99 20 125 4 25 13 84 20 130 2 14
11 70 20 125 18 107 24 149 30 205 2 19 4 35 5 35 3 0 10 41 15 88 3 27 7 52
9 55 2 4 6 30 10 57 3 28 8 61 10 75 3 14 8 43 12 65 3 22 7 55 8 72 0 18 4
33 7 33 4 0 5 14 4 30 -1 17 0 30 4 30 4 0 7 10 8 23 0 20 7 69 19 142 6 36
11 65 19 125 7 45 11 71 20 113 2 12 6 43 7 69 2 27 5 48 9 48 3 0 5 10 6 23
0 12 5 51 11 87 6 36 13 82 16 103 10 64 17 111 21 137 2 14 9 57 15 95 13 82
17 111 30 185 12 76 21 129 26 170 2 19 6 42 9 50 2 8 7 42 11 75 3 33 8 62 9
65 2 3 6 28 9 55 7 53 14 90 16 90 1 0 3 20 6 44 2 25 7 56 9 70 3 14 8 44 11
66 2 22 9 63 14 90 6 28 12 66 14 85 3 19 7 51 11 70 3 19 7 49 10 65 2 17 6
41 9 55 2 14 7 45 11 70 4 25 9 59 11 75 12 72 11 215 -1 280 -13 70 -35 138
-48 151 -4 4 -7 16 -7 26 0 10 -4 18 -10 18 -5 0 -10 5 -10 11 0 17 -62 108
-102 149 -81 85 -225 176 -308 195 -19 5 -39 10 -45 11 -5 2 -28 8 -50 13 -38
10 -10286 17 -10296 7z m9326 -1438 c1 -1 -1 -28 -6 -58 -5 -30 -11 -73 -14
-95 -3 -22 -9 -49 -12 -59 -3 -11 -7 -33 -8 -50 -4 -41 -15 -127 -20 -146 -4
-13 -13 -70 -21 -125 -1 -11 -3 -20 -4 -20 -1 0 -3 -11 -4 -25 -1 -14 -6 -52
-11 -85 -5 -33 -8 -63 -7 -67 1 -5 -3 -8 -9 -8 -5 0 -7 -4 -4 -10 3 -5 1 -38
-5 -72 -7 -35 -14 -76 -16 -93 -4 -30 -6 -46 -24 -160 -5 -33 -12 -77 -16 -99
-3 -21 -7 -47 -9 -58 -3 -11 -7 -46 -11 -77 -3 -31 -8 -59 -10 -62 -1 -3 -6
-28 -10 -55 -3 -27 -8 -58 -10 -69 -3 -11 -7 -37 -9 -58 -2 -21 -9 -63 -14
-95 -11 -64 -20 -122 -26 -167 -3 -16 -7 -41 -10 -55 -2 -14 -7 -38 -9 -55 -6
-43 -18 -117 -21 -135 -2 -8 -6 -37 -9 -63 -4 -26 -10 -69 -15 -95 -5 -26 -9
-54 -9 -62 0 -8 -3 -26 -6 -40 -4 -14 -9 -43 -11 -65 -3 -22 -10 -65 -15 -95
-5 -30 -11 -73 -15 -95 -3 -22 -8 -53 -12 -70 -3 -16 -7 -46 -9 -65 -1 -19 -3
-35 -4 -35 -3 0 -10 -42 -12 -82 -2 -24 -6 -43 -10 -43 -3 0 -5 -8 -4 -17 2
-10 -1 -33 -5 -53 -8 -36 -18 -105 -23 -150 -1 -14 -5 -30 -8 -35 -3 -6 -5
-22 -4 -37 1 -16 -1 -28 -4 -28 -4 0 -6 -10 -5 -22 1 -13 0 -27 -3 -33 -3 -5
-7 -21 -9 -35 -5 -47 -12 -95 -17 -120 -8 -36 -17 -102 -17 -120 -1 -8 -3 -22
-6 -30 -3 -8 -6 -26 -8 -40 -3 -38 -22 -155 -25 -155 0 0 -3 -18 -5 -40 -2
-22 -6 -53 -8 -70 -14 -79 -20 -122 -23 -140 -1 -11 -3 -20 -4 -20 -1 0 -3
-11 -5 -25 -4 -41 -14 -104 -18 -125 -3 -11 -8 -48 -12 -82 -4 -34 -12 -63
-18 -65 -7 -2 -1593 -4 -3526 -4 l-3514 1 -3 30 c-3 27 -19 131 -30 195 -2 14
-7 45 -10 70 -3 25 -7 52 -10 61 -2 9 -7 36 -10 60 -5 41 -7 58 -18 119 -6 36
-19 122 -20 140 -1 9 -4 20 -7 25 -3 6 -5 25 -5 43 1 17 -1 32 -5 32 -3 0 -6
19 -8 42 -1 23 -4 44 -6 48 -2 4 -7 29 -10 57 -3 27 -8 60 -11 74 -6 27 -15
84 -18 114 -2 11 -7 43 -11 70 -5 28 -9 55 -10 60 -10 84 -19 135 -24 135 -3
0 -6 19 -7 43 -1 43 -7 93 -18 137 -3 14 -8 41 -10 60 -12 89 -18 126 -23 140
-3 8 -7 31 -8 50 -1 19 -3 35 -4 35 -2 0 -4 14 -6 30 -6 61 -21 160 -25 160
-1 0 -3 14 -5 30 -8 67 -16 121 -20 135 -2 8 -7 37 -10 64 -3 27 -7 51 -9 55
-2 3 -7 31 -10 61 -3 30 -8 64 -10 75 -2 11 -7 42 -10 69 -4 27 -9 52 -10 55
-2 3 -7 29 -10 56 -10 77 -27 181 -46 295 -5 30 -12 72 -15 93 -3 20 -7 54
-10 75 -3 20 -10 62 -15 92 -11 61 -21 131 -25 172 -2 14 -5 30 -8 35 -3 4 -8
37 -12 73 -4 36 -9 74 -12 85 -7 33 -11 58 -18 100 -6 46 -13 87 -20 130 -3
17 -8 50 -10 75 -3 25 -8 52 -10 61 -3 9 -8 36 -11 60 -11 88 -13 104 -14 104
-2 0 -7 26 -15 90 -9 68 -11 79 -19 117 -5 22 -2 27 16 30 31 4 8369 1 8373
-4z"/>
</g>
</svg>
